<svg preserveAspectRatio="none" width="100%" height="100%" overflow="visible" style="display: block;" viewBox="0 0 29.2585 31.927" fill="none" xmlns="http://www.w3.org/2000/svg">
<g id="Layer_1-2">
<path id="Vector" d="M29.2571 22.3055V9.62022C29.2571 8.44911 28.6167 7.36738 27.5764 6.78183L16.3093 0.439167C15.269 -0.146389 13.9882 -0.146389 12.9491 0.439167L1.68076 6.78183C0.640415 7.36738 0 8.44911 0 9.62022V22.3068C0 23.4779 0.640415 24.5597 1.68076 25.1452L12.9491 31.4879C13.9895 32.0734 15.2703 32.0734 16.3093 31.4879L27.5777 25.1452C28.6181 24.5597 29.2585 23.4779 29.2585 22.3068L29.2571 22.3055Z" fill="url(#paint0_linear_0_2889)"/>
<path id="Vector_2" d="M23.7206 10.5957C24.0966 9.97129 23.6263 9.19012 22.8742 9.19012H21.5562C20.8573 9.19012 20.2116 9.54767 19.8622 10.1267L14.5621 18.923L9.2621 10.1267C8.91267 9.54638 8.26694 9.19012 7.56806 9.19012H6.25003C5.498 9.19012 5.02633 9.97129 5.40367 10.5957L13.2853 23.6762L13.365 23.8096C13.8965 24.6918 15.2265 24.6918 15.7579 23.8096L15.8377 23.6762L23.7193 10.5957" fill="var(--fill-0, white)"/>
</g>
<defs>
<linearGradient id="paint0_linear_0_2889" x1="3.83433" y1="33.4206" x2="27.0898" y2="2.53366" gradientUnits="userSpaceOnUse">
<stop offset="0.133748" stop-color="#06489D"/>
<stop offset="0.78718" stop-color="#1463BD"/>
</linearGradient>
</defs>
</svg>
