<svg preserveAspectRatio="none" width="100%" height="100%" overflow="visible" style="display: block;" viewBox="0 0 16 8" fill="none" xmlns="http://www.w3.org/2000/svg">
<path id="Vector" fill-rule="evenodd" clip-rule="evenodd" d="M1.46447 1.46447C2.40215 0.526785 3.67392 0 5 0H11C12.3261 0 13.5979 0.526785 14.5355 1.46447C15.4732 2.40215 16 3.67392 16 5V7C16 7.55228 15.5523 8 15 8C14.4477 8 14 7.55228 14 7V5C14 4.20435 13.6839 3.44129 13.1213 2.87868C12.5587 2.31607 11.7956 2 11 2H5C4.20435 2 3.44129 2.31607 2.87868 2.87868C2.31607 3.44129 2 4.20435 2 5V7C2 7.55228 1.55228 8 1 8C0.447715 8 0 7.55228 0 7V5C0 3.67392 0.526784 2.40215 1.46447 1.46447Z" fill="var(--fill-0, #1565C0)"/>
</svg>
