<svg preserveAspectRatio="none" width="100%" height="100%" overflow="visible" style="display: block;" viewBox="0 0 18 21.9998" fill="none" xmlns="http://www.w3.org/2000/svg">
<path id="Vector" fill-rule="evenodd" clip-rule="evenodd" d="M9 2C7.14348 2 5.36301 2.7375 4.05025 4.05025C2.7375 5.36301 2 7.14348 2 9C2 11.1593 3.21668 13.4867 4.79774 15.564C6.32602 17.572 8.07969 19.198 9 19.9966C9.92031 19.198 11.674 17.572 13.2023 15.564C14.7833 13.4867 16 11.1593 16 9C16 7.14348 15.2625 5.36301 13.9497 4.05025C12.637 2.7375 10.8565 2 9 2ZM2.63604 2.63604C4.32387 0.948212 6.61305 0 9 0C11.3869 0 13.6761 0.948212 15.364 2.63604C17.0518 4.32387 18 6.61305 18 9C18 11.8337 16.4472 14.6028 14.7937 16.7753C13.1171 18.9781 11.2097 20.7312 10.2545 21.5559C10.2375 21.5706 10.22 21.5847 10.202 21.5982C9.85545 21.8588 9.43359 21.9998 9 21.9998C8.56641 21.9998 8.14455 21.8588 7.798 21.5982C7.78002 21.5847 7.76249 21.5706 7.74546 21.5559C6.79028 20.7312 4.88287 18.9781 3.20626 16.7753C1.55282 14.6028 0 11.8337 0 9C0 6.61305 0.948212 4.32387 2.63604 2.63604Z" fill="var(--fill-0, #1565C0)"/>
</svg>
