<svg preserveAspectRatio="none" width="100%" height="100%" overflow="visible" style="display: block;" viewBox="0 0 9.33333 6.66667" fill="none" xmlns="http://www.w3.org/2000/svg">
<g id="Vector">
<path d="M5.33333 6C5.33333 6.36819 5.03486 6.66667 4.66667 6.66667C4.29848 6.66667 4 6.36819 4 6V5.33333C4 4.96514 4.29848 4.66667 4.66667 4.66667C5.03486 4.66667 5.33333 4.96514 5.33333 5.33333V6Z" fill="url(#paint0_linear_0_2298)"/>
<path d="M7.33333 6C7.33333 6.36819 7.03486 6.66667 6.66667 6.66667C6.29848 6.66667 6 6.36819 6 6V4C6 3.63181 6.29848 3.33333 6.66667 3.33333C7.03486 3.33333 7.33333 3.63181 7.33333 4V6Z" fill="url(#paint1_linear_0_2298)"/>
<path d="M9.33333 6C9.33333 6.36819 9.03486 6.66667 8.66667 6.66667C8.29848 6.66667 8 6.36819 8 6L8 2.66667C8 2.29848 8.29848 2 8.66667 2C9.03486 2 9.33333 2.29848 9.33333 2.66667L9.33333 6Z" fill="url(#paint2_linear_0_2298)"/>
<path d="M2 0V2H4C4 3.10457 3.10457 4 2 4C0.895431 4 0 3.10457 0 2C0 0.89543 0.895431 0 2 0Z" fill="url(#paint3_linear_0_2298)"/>
</g>
<defs>
<linearGradient id="paint0_linear_0_2298" x1="2" y1="2.19445e-07" x2="11.2157" y2="4.04809" gradientUnits="userSpaceOnUse">
<stop stop-color="#60A5FA"/>
<stop offset="1" stop-color="#4345E0"/>
</linearGradient>
<linearGradient id="paint1_linear_0_2298" x1="2" y1="2.19445e-07" x2="11.2157" y2="4.04809" gradientUnits="userSpaceOnUse">
<stop stop-color="#60A5FA"/>
<stop offset="1" stop-color="#4345E0"/>
</linearGradient>
<linearGradient id="paint2_linear_0_2298" x1="2" y1="2.19445e-07" x2="11.2157" y2="4.04809" gradientUnits="userSpaceOnUse">
<stop stop-color="#60A5FA"/>
<stop offset="1" stop-color="#4345E0"/>
</linearGradient>
<linearGradient id="paint3_linear_0_2298" x1="2" y1="2.19445e-07" x2="11.2157" y2="4.04809" gradientUnits="userSpaceOnUse">
<stop stop-color="#60A5FA"/>
<stop offset="1" stop-color="#4345E0"/>
</linearGradient>
</defs>
</svg>
